<svg width="4659" height="5019" viewBox="0 0 4659 5019" fill="none" xmlns="http://www.w3.org/2000/svg">
<path d="M2164.07 3030.17L2212.24 3391.47C2214.08 3405.27 2231.54 3410.39 2240.73 3399.92C2368.22 3254.77 2577.99 3068.25 2765.81 2945.92C2815.97 2913.25 2860.42 2882.71 2905.83 2855.46" stroke="#FF335F" stroke-width="16" stroke-linecap="round"/>
<path d="M3210.1 2488.99C3281 2511.19 3422.79 2495.04 3422.79 2252.84" stroke="#FF335F" stroke-width="16" stroke-linecap="round"/>
<path d="M2902.8 1926.61C2844.02 1958.66 2700.71 2000.34 2597.77 1910.72" stroke="#FF335F" stroke-width="16" stroke-linecap="round"/>
<path d="M2229.17 1912.23C2155.75 1950.33 1989.83 1989.44 1913.54 1841.09" stroke="#FF335F" stroke-width="16" stroke-linecap="round"/>
<path d="M2085.36 2601.02C2158.02 2573.77 2587.18 2685.03 2634.11 2640.38" stroke="#FF335F" stroke-width="16" stroke-linecap="round"/>
<path d="M2277.48 2520.14C2206.63 2474.28 2130.43 2571.13 2080.18 2595.09C2076.94 2596.63 2075.97 2600.98 2078.41 2603.6C2242.54 2779.78 2431.79 2757.82 2506.94 2723.62C2532.85 2715.22 2598.89 2665.6 2652.98 2643.62C2656.69 2642.11 2656.46 2636.41 2652.6 2635.36C2590.95 2618.61 2477.3 2580.51 2426.71 2536.66C2379.06 2495.36 2326.39 2506.62 2298.05 2521.23C2291.58 2524.57 2283.6 2524.1 2277.48 2520.14Z" stroke="#FF335F" stroke-width="16" stroke-linecap="round"/>
<path d="M2536.46 1909.96C2588.44 1847.89 2702.23 1719.37 2941.41 1877.41" stroke="#FF335F" stroke-width="16" stroke-linecap="round"/>
<path d="M2442.06 1715.47L2450.45 1674.92C2452.68 1664.12 2459.41 1654.69 2469.42 1650.05C2620.76 1579.91 2917.6 1628.68 3094.1 1674.26C3098.14 1675.3 3100.64 1679.21 3100.02 1683.34C3094.41 1720.76 3058.91 1745.98 3021.5 1740.29C2757.23 1700.1 2574.24 1722.74 2481.14 1749.37C2460.32 1755.33 2437.67 1736.68 2442.06 1715.47Z" fill="#FF335F"/>
<path d="M2442.06 1715.47L2450.45 1674.92C2452.68 1664.12 2459.41 1654.69 2469.42 1650.05C2620.76 1579.91 2917.6 1628.68 3094.1 1674.26C3098.14 1675.3 3100.64 1679.21 3100.02 1683.34C3094.41 1720.76 3058.91 1745.98 3021.5 1740.29C2757.23 1700.1 2574.24 1722.74 2481.14 1749.37C2460.32 1755.33 2437.67 1736.68 2442.06 1715.47Z" fill="#FF335F"/>
<path d="M2442.06 1715.47L2450.45 1674.92C2452.68 1664.12 2459.41 1654.69 2469.42 1650.05C2620.76 1579.91 2917.6 1628.68 3094.1 1674.26C3098.14 1675.3 3100.64 1679.21 3100.02 1683.34C3094.41 1720.76 3058.91 1745.98 3021.5 1740.29C2757.23 1700.1 2574.24 1722.74 2481.14 1749.37C2460.32 1755.33 2437.67 1736.68 2442.06 1715.47Z" fill="#FF335F"/>
<path d="M2072.48 1763.87C2095.19 1763.87 2132.28 1779.79 2156.5 1795.68C2218.57 1836.4 2196.36 1868.84 2163.31 1897.1C2149.94 1906.18 2102 1921.62 2059.62 1889.53C2017.23 1857.44 2036.91 1793.4 2072.48 1763.87ZM2121.88 1824.43C2114.32 1827.46 2092.36 1870.61 2100.69 1880.45C2106.75 1884.23 2129.45 1884.23 2137.02 1871.36C2142.77 1861.59 2143.08 1824.43 2121.88 1824.43ZM2081.46 1807.23C2076.69 1803.34 2069.47 1805.09 2067.2 1810.81C2060.06 1828.77 2054.57 1849.47 2071.93 1860.01C2078.47 1862.02 2084.68 1857.34 2091 1845.75C2098.12 1832.67 2093 1816.65 2081.46 1807.23Z" fill="#FF335F"/>
<path d="M2701.47 1816.86C2722.6 1808.55 2770 1810.94 2798.35 1816.87C2871.01 1832.05 2858.82 1861.27 2838.41 1899.67C2829.29 1913.01 2790.33 1944.93 2739.14 1930.58C2687.95 1916.22 2679.17 1857.37 2701.47 1816.86ZM2810.65 1887C2820.41 1873.07 2822.57 1835.79 2800.62 1861.53C2787.72 1873.71 2764.52 1885.97 2778.28 1897.45C2779.93 1898.84 2782.04 1899.64 2784.19 1899.53C2792.29 1899.1 2805.89 1893.8 2810.65 1887ZM2740.85 1824.07C2737.89 1823.32 2734.66 1823.42 2732.23 1825.28C2715.72 1837.86 2715.66 1879.07 2739.22 1886.02C2743.09 1887.16 2747.18 1885.74 2750.33 1883.22C2790.21 1851.37 2760.66 1834.68 2749.18 1827.81C2746.58 1826.26 2743.79 1824.8 2740.85 1824.07Z" fill="#FF335F"/>
<path d="M1883.26 1797.94C1952.64 1761.11 2111.69 1735.88 2214.03 1853.95" stroke="#FF335F" stroke-width="16" stroke-linecap="round"/>
<path d="M2241.27 1678.35C2207.97 1607.51 2000.33 1604.43 1900.67 1611.74L1847.69 1618.56L1812.11 1741.93C1955.77 1715.09 2245.13 1678.64 2267.19 1764.13C2260.9 1729.36 2251.76 1700.66 2241.27 1678.35Z" fill="#FF335F"/>
<path d="M2463.8 2226.34C2570.52 2241.48 2537.22 2357.29 2475.16 2337.61C2413.09 2317.93 2394.17 2337.61 2394.17 2337.61C2267.01 2420.87 2161.04 2336.09 2207.97 2226.34C2303.34 1956.13 2282.9 1766.91 2241.27 1678.35C2207.97 1607.51 2000.33 1604.43 1900.67 1611.74L1847.69 1618.56L1812.11 1741.93C1959.31 1714.43 2259.51 1676.84 2268.33 1770.69M2207.97 2226.34C2173.91 2226.34 2146.66 2313.74 2223.87 2344.77" stroke="#FF335F" stroke-width="16" stroke-linecap="round"/>
<path d="M3148.79 2447.36C3114.99 2426.92 3030.72 2365.61 3054.94 2321.71C3079.16 2277.81 3119.11 2333.84 3172.26 2264.95C3192.69 2238.45 3180.58 2185.47 3098.84 2180.17C3017.09 2174.87 3045.86 2085.56 3081.43 2059.83C3117 2034.09 3172.26 1929.64 3081.43 1910.72C3074.44 1909.26 3068.03 1907.63 3062.17 1905.84C2991.95 1884.43 3001.84 1840.85 3054.94 1810.81C3097.07 1786.97 3064.18 1696.61 3037.22 1643.57C3033.3 1635.87 3023.87 1633.13 3015.66 1635.8C2976.54 1648.51 2908.41 1646.11 2864.2 1558.76C2801.38 1434.63 2751.42 1608.72 2633.35 1558.76C2552.31 1524.48 2614.4 1417.93 2672.71 1347.87C2682.12 1336.57 2673.37 1317.39 2658.72 1316.07C2614.59 1312.09 2561.44 1296.46 2546.3 1253.73C2531.7 1212.48 2559.41 1163.21 2589 1127.43C2598.91 1115.45 2588.6 1088.2 2577.42 1077.41C2567.9 1068.24 2561.7 1053.86 2563.71 1031.96C2568.56 979.279 2398.71 1122.03 2306.37 1122.03C2287.7 1122.03 2263.83 1106.14 2284.42 1075.86C2305.01 1045.58 2239.76 1047.85 2206.46 1081.91M3034.33 1638C3067.89 1695.52 3142.7 1784.16 3062.17 1810.81C2981.64 1837.45 3026.2 1900.4 3062.17 1905.84" stroke="#FF335F" stroke-width="16" stroke-linecap="round"/>
<path d="M2504.17 303.967C2609.51 232.661 2729.39 314.048 2768.07 362.863C3003.02 634.135 2725.69 908.334 2557.66 1011.52C2455.98 1068.29 2258.38 1166.54 2281.39 1105.38C2303.55 1046.47 2261.95 1049.31 2235.86 1058.85C2233.92 1059.56 2232.13 1060.75 2230.65 1062.19C1416.26 1851.11 1844.09 2680.79 2164.35 3023.41C2166.68 3025.9 2168.08 3028.97 2168.49 3032.36L2214.57 3410.64C2214.71 3411.81 2214.72 3413.04 2214.6 3414.22C2204.21 3512.07 2158.04 3531.72 2147.71 3535.6C2147.44 3536.21 2147.09 3536.53 2146.66 3536.53C2144.95 3536.53 2145.53 3536.42 2147.71 3535.6C2153.7 3522.18 2122.7 3370.43 2078.54 3462.36C2032.37 3558.48 1995.28 3434.35 1951.38 3462.36C1926.78 3478.05 1895.31 3420.65 1871.72 3362.13C1865.27 3346.15 1838.77 3348.66 1835.7 3365.61C1815.68 3476.07 1791.01 3520.14 1773.56 3532.77C1766.83 3537.65 1761.19 3530.27 1761.73 3521.97C1764.33 3482.4 1749.23 3425.79 1670.57 3434.35C1582.27 3443.96 1553.71 3355.55 1550.3 3309.06C1550.25 3308.31 1550.15 3307.59 1549.99 3306.85C1540.47 3262.43 1515.19 3195.38 1488.16 3274.65C1458.01 3363.08 1340.7 3381.54 1314.14 3371.49C1309.43 3369.71 1311.21 3364.48 1315.09 3361.26C1396.63 3293.76 1373.56 3177.25 1351.16 3126.3C1383.71 3226.21 1257.31 3332.17 1280.77 3274.65C1304.24 3217.12 1261.85 3171.71 1214.16 3126.3C1166.48 3080.88 1204.32 3042.28 1237.63 2958.26C1263.69 2892.51 1189.97 2890.46 1147.31 2897.96C1145.46 2898.29 1143.58 2898.37 1141.77 2897.83C1121.78 2891.91 1093.13 2855.41 1120.31 2747.85C1148.77 2635.22 1028.72 2557.11 965.145 2532.13C889.96 2492.02 759.421 2394.38 838.743 2324.74C886.228 2283.06 907.33 2245.44 915.105 2217.58C919.049 2203.44 905.336 2201.11 896.735 2213C878.808 2237.78 859.877 2245.57 844.355 2245.53C832.223 2245.51 832.408 2231.24 842.363 2224.3C904.341 2181.14 845.338 2135.91 799.385 2044.69C748.673 1944.02 744.131 1849.41 819.064 1801.73C893.996 1754.04 841.771 1583.74 777.434 1533.78C742.386 1506.57 757.996 1447.39 782.677 1396.79C802.046 1357.08 852.67 1341.17 882.458 1308.54C908.012 1280.54 926.771 1227.17 916.704 1131.87C898.623 960.703 1087.51 804.333 1185.55 746.655C1186.48 746.105 1187.39 745.7 1188.41 745.336C1233.46 729.327 1339.93 655.664 1417.77 483.21C1494.82 312.514 1782.66 319.339 1925.66 345.258C1931.33 346.286 1937.01 344.222 1940.97 340.031C2043.53 231.456 2273.08 239.025 2310.15 289.444C2335.12 323.4 2398.63 320.13 2438.96 320.276C2453.24 320.327 2492.34 311.97 2504.17 303.967Z" fill="#FF335F"/>
<path d="M2206.46 1080.4C1849.2 1400.57 1460.16 2199.85 2136.07 2993.08C2167.24 3039.6 2258.51 3120.75 2374.81 3074.55C2375.59 3074.24 2376.37 3073.99 2377.19 3073.8C2586.11 3025.51 3035.06 2861.62 3169.23 2589.66C3193.7 2551.81 3242.35 2385.75 3241.14 2102.97" stroke="#FF335F" stroke-width="16" stroke-linecap="round"/>
<path d="M2822.5 388.076C2726.51 260.093 2517.26 290.702 2415.54 325.129C2411.49 326.499 2408.19 329.659 2406.39 333.535C2152.32 881.076 2498.8 945.912 2547.06 1008.5C2585.46 1058.29 2563.62 1144.4 2547.51 1182.3C2547.21 1183.01 2546.97 1183.69 2546.77 1184.44C2537.43 1220.4 2535.47 1292.11 2600.8 1299.9C2662.22 1307.23 2672.47 1340.03 2669.74 1358.78C2669.35 1361.4 2667.94 1363.75 2666.14 1365.69C2603.84 1432.93 2595.95 1496.91 2600.14 1524.17C2600.51 1526.54 2601.55 1528.72 2603.12 1530.54C2625.22 1556.13 2682.47 1590.57 2753.7 1542.11C2825.69 1493.13 2847.94 1510.62 2850.42 1526.49L2850.44 1526.59C2850.56 1527.38 2850.68 1528.15 2850.89 1528.92C2861.21 1567.73 2900.01 1635.21 2995.9 1635.21C3062.38 1635.21 3085.54 1702.59 3089.83 1752.33C3090.78 1763.42 3101.98 1771.15 3113.09 1771.79C3151.98 1774.05 3163.32 1824.38 3163.91 1854.6C3163.93 1855.69 3163.83 1856.73 3163.63 1857.8C3155.58 1900.19 3154.69 1992.71 3213.89 2036.36C3269.58 2077.43 3263.82 2155.19 3252.21 2196.38C3250.66 2201.87 3251.78 2207.8 3255.41 2212.21C3301.81 2268.72 3313.01 2316.46 3312.09 2345.88C3311.73 2357.3 3320.47 2366.17 3327.29 2357C3348.82 2328.01 3360.7 2254.68 3365.09 2207.21C3365.55 2202.31 3371.14 2199.68 3375.17 2202.52C3377.39 2204.09 3378.34 2206.97 3377.58 2209.59C3353.59 2291.39 3356.37 2334.66 3365.32 2354.85C3369.54 2364.38 3379.17 2359.25 3379.77 2348.85C3385.22 2254.35 3406.98 2244.02 3420.53 2252.75C3423.21 2254.48 3424.64 2257.66 3425.18 2260.8C3460.16 2464.31 3313.97 2503.07 3225.77 2496.93C3218.68 2496.44 3211.96 2500.28 3209.15 2506.8L3164.86 2609.45C3164.25 2610.88 3163.83 2612.45 3163.66 2614C3121.12 2990.61 3449.88 3087.71 3639.93 3090.81C3651.05 3090.99 3658.96 3101.93 3656.55 3112.78C3651.18 3137.02 3650.82 3159.77 3654.13 3180.9C3675.09 3314.68 3908.96 3269.7 3967.63 3391.74C3977.24 3411.73 3984.66 3436.94 3988.95 3468.41C4011.07 3630.45 4116.54 3630.15 4179.63 3605.42C4188.67 3601.88 4199.22 3606.12 4203.3 3614.93C4263.67 3745.17 4414.81 3667.41 4499.53 3599.2C4508.26 3592.16 4506.78 3578.34 4497.64 3571.84C4475.05 3555.78 4441.71 3526.91 4410.54 3485.07C4381.46 3446 4388.49 3424.2 4403.02 3413.38C4412.13 3406.6 4424.51 3417.47 4429.56 3427.64C4446.8 3462.34 4504.12 3509.7 4556.63 3496.42C4583.6 3489.6 4598.9 3495.45 4607.06 3505.37C4615.64 3515.79 4631.99 3524.39 4634.84 3511.19C4644.03 3468.66 4580.06 3406.35 4539.22 3375.32C4506.42 3345.29 4452.48 3282.82 4499.1 3273.14C4557.38 3261.02 4539.22 3244.37 4577.06 3142.95C4607.34 3061.81 4564.45 2919.41 4539.22 2858.36C4526.6 2812.69 4524.08 2699.41 4614.91 2611.61C4712.33 2517.43 4621.38 2407.09 4587.86 2370.5C4581.89 2363.98 4582.75 2354.35 4589.26 2348.37C4655.83 2287.18 4634.96 2228.07 4614.91 2205.15C4583.12 2169.33 4523.47 2085.41 4539.22 2036.36C4554.69 1988.17 4533.42 1899.01 4520.23 1858.34C4519.77 1856.91 4519.5 1855.48 4519.48 1853.98C4519.11 1825.77 4529.94 1745.36 4577.06 1629.91C4623.83 1515.32 4496.56 1388.69 4420.05 1334.22C4415.17 1330.75 4412.55 1324.88 4413.08 1318.91C4426.19 1169.95 4322.39 1072.08 4261.66 1037.33C4257.26 1034.81 4254.17 1030.41 4253.23 1025.42C4219.72 847.473 4032.05 795.283 3967.39 780.711C3955.59 778.052 3942.6 762.48 3936.31 752.146C3834.04 584.06 3668.53 541.945 3601.12 531.394C3588.17 529.366 3561.49 513.016 3552.9 503.11C3431.91 363.628 3262.17 374.215 3181.16 400.644C3175.62 402.451 3169.48 401.295 3164.96 397.618C3040.96 296.816 2910.74 345.824 2847.9 391.944C2839.92 397.802 2828.44 395.996 2822.5 388.076Z" fill="#FF335F"/>
<path d="M435.868 4176H421.057L520.179 3378.46H557.777L797.038 4115.62L1035.16 3378.46H1072.76L1171.88 4176H1077.31L998.7 3537.97L792.48 4176H720.702L512.204 3545.95L435.868 4176ZM1790.48 4176C1738.83 4176 1703.51 4166.13 1684.52 4146.38C1667.05 4129.67 1658.31 4115.24 1658.31 4103.08V4079.16C1621.09 4146.76 1561.47 4180.56 1479.44 4180.56C1383.73 4180.56 1329.42 4137.26 1316.51 4050.67C1314.99 4041.56 1314.23 4032.44 1314.23 4023.33C1314.23 4013.45 1315.75 4002.82 1318.79 3991.43C1321.83 3980.03 1330.56 3967.5 1345 3953.83C1373.86 3926.49 1437.28 3909.78 1535.26 3903.7C1559.57 3901.42 1581.98 3900.28 1602.49 3900.28C1622.99 3900.28 1641.6 3901.04 1658.31 3902.56V3713.43C1656.79 3712.67 1656.79 3709.25 1658.31 3703.18C1659.83 3696.34 1658.31 3687.98 1653.76 3678.11C1649.96 3667.48 1644.64 3657.22 1637.81 3647.35C1630.97 3637.47 1618.82 3629.12 1601.35 3622.28C1583.88 3614.69 1561.09 3610.89 1532.99 3610.89C1504.88 3610.89 1471.84 3616.21 1433.86 3626.84C1396.65 3636.71 1369.3 3646.59 1351.83 3656.46L1347.27 3648.49C1414.88 3617.35 1483.62 3601.77 1553.49 3601.77C1631.73 3601.77 1683.38 3615.83 1708.44 3643.93C1728.19 3665.96 1738.07 3689.12 1738.07 3713.43V4095.11C1738.07 4117.13 1742.24 4134.22 1750.6 4146.38C1759.71 4157.77 1768.83 4163.85 1777.94 4164.61L1790.48 4166.89H1825.8V4176H1790.48ZM1497.67 4171.44C1537.92 4171.44 1574 4157.77 1605.9 4130.43C1638.56 4102.32 1656.03 4075.36 1658.31 4049.53V3911.67C1637.81 3910.15 1616.92 3909.4 1595.65 3909.4C1575.14 3909.4 1554.63 3910.53 1534.13 3912.81C1476.4 3919.65 1438.8 3932.56 1421.33 3951.55C1403.86 3970.54 1395.13 3996.74 1395.13 4030.17C1395.13 4036.24 1395.51 4043.08 1396.27 4050.67C1403.1 4131.19 1436.9 4171.44 1497.67 4171.44ZM2128.89 3655.32V3631.4C2094.71 3645.07 2063.56 3672.79 2035.46 3714.57C2007.36 3755.59 1992.55 3794.32 1991.03 3830.78V4176H1911.27V3606.33H1991.03V3787.49C2003.18 3743.43 2026.35 3702.04 2060.53 3663.3C2094.71 3623.8 2133.44 3603.29 2176.74 3601.77H2181.3C2196.49 3601.77 2209.02 3607.09 2218.89 3617.73C2229.53 3627.6 2234.84 3640.13 2234.84 3655.32C2234.84 3670.51 2229.53 3683.05 2218.89 3692.92C2209.02 3702.8 2196.49 3707.73 2181.3 3707.73C2166.1 3707.73 2153.57 3702.8 2143.7 3692.92C2133.82 3683.05 2128.89 3670.51 2128.89 3655.32ZM2337.81 3615.45V3606.33H2361.74V3492.4H2441.49V3606.33H2615.81V3615.45H2441.49V4030.17C2441.49 4079.54 2446.81 4115.24 2457.44 4137.26C2468.83 4159.29 2492 4170.3 2526.94 4170.3C2562.64 4170.3 2598.72 4163.09 2635.18 4148.66L2638.6 4157.77C2600.62 4172.2 2556.94 4179.42 2507.57 4179.42C2458.96 4179.42 2422.5 4169.54 2398.2 4149.8C2373.89 4129.29 2361.74 4089.03 2361.74 4029.03V3615.45H2337.81ZM2828.54 4176C2797.39 4176 2773.47 4169.16 2756.76 4155.49C2740.81 4141.82 2732.45 4128.15 2731.69 4114.48L2730.55 4095.11V3606.33H2810.31V4095.11C2810.31 4117.13 2814.48 4134.22 2822.84 4146.38C2831.95 4157.77 2840.69 4163.85 2849.04 4164.61L2862.72 4166.89H2898.04V4176H2828.54ZM2737.39 3478.73C2728.27 3469.61 2723.72 3458.22 2723.72 3444.55C2723.72 3430.87 2728.27 3419.48 2737.39 3410.37C2746.5 3400.49 2757.9 3395.55 2771.57 3395.55C2785.24 3395.55 2796.63 3400.49 2805.75 3410.37C2815.62 3419.48 2820.56 3430.87 2820.56 3444.55C2820.56 3458.22 2815.62 3469.61 2805.75 3478.73C2796.63 3487.84 2785.24 3492.4 2771.57 3492.4C2757.9 3492.4 2746.5 3487.84 2737.39 3478.73ZM3462.73 4176C3431.59 4176 3407.66 4169.16 3390.95 4155.49C3375 4141.82 3366.64 4128.15 3365.88 4114.48L3364.74 4095.11V3737.36C3364.74 3677.35 3349.17 3638.99 3318.03 3622.28C3302.08 3614.69 3282.33 3610.89 3258.79 3610.89C3210.17 3610.89 3166.5 3630.26 3127.76 3669C3089.03 3706.97 3069.66 3741.15 3069.66 3771.54V4176H2989.9V3606.33H3069.66V3736.22C3082.57 3703.56 3106.5 3673.17 3141.43 3645.07C3176.37 3616.21 3214.73 3601.77 3256.51 3601.77C3298.28 3601.77 3332.08 3605.95 3357.91 3614.31C3384.49 3621.9 3403.86 3632.92 3416.01 3647.35C3435 3670.89 3444.5 3701.28 3444.5 3738.5V4095.11C3444.5 4117.13 3448.68 4134.22 3457.03 4146.38C3466.15 4157.77 3475.26 4163.85 3484.37 4164.61L3496.91 4166.89H3532.23V4176H3462.73ZM4082.94 4176C4031.29 4176 3995.98 4166.13 3976.99 4146.38C3959.52 4129.67 3950.78 4115.24 3950.78 4103.08V4079.16C3913.56 4146.76 3853.94 4180.56 3771.91 4180.56C3676.2 4180.56 3621.89 4137.26 3608.98 4050.67C3607.46 4041.56 3606.7 4032.44 3606.7 4023.33C3606.7 4013.45 3608.22 4002.82 3611.26 3991.43C3614.3 3980.03 3623.03 3967.5 3637.46 3953.83C3666.33 3926.49 3729.75 3909.78 3827.73 3903.7C3852.04 3901.42 3874.45 3900.28 3894.95 3900.28C3915.46 3900.28 3934.07 3901.04 3950.78 3902.56V3713.43C3949.26 3712.67 3949.26 3709.25 3950.78 3703.18C3952.3 3696.34 3950.78 3687.98 3946.22 3678.11C3942.43 3667.48 3937.11 3657.22 3930.27 3647.35C3923.44 3637.47 3911.28 3629.12 3893.81 3622.28C3876.35 3614.69 3853.56 3610.89 3825.45 3610.89C3797.35 3610.89 3764.31 3616.21 3726.33 3626.84C3689.11 3636.71 3661.77 3646.59 3644.3 3656.46L3639.74 3648.49C3707.34 3617.35 3776.08 3601.77 3845.96 3601.77C3924.2 3601.77 3975.85 3615.83 4000.91 3643.93C4020.66 3665.96 4030.54 3689.12 4030.54 3713.43V4095.11C4030.54 4117.13 4034.71 4134.22 4043.07 4146.38C4052.18 4157.77 4061.3 4163.85 4070.41 4164.61L4082.94 4166.89H4118.26V4176H4082.94ZM3790.14 4171.44C3830.39 4171.44 3866.47 4157.77 3898.37 4130.43C3931.03 4102.32 3948.5 4075.36 3950.78 4049.53V3911.67C3930.27 3910.15 3909.39 3909.4 3888.12 3909.4C3867.61 3909.4 3847.1 3910.53 3826.59 3912.81C3768.87 3919.65 3731.27 3932.56 3713.8 3951.55C3696.33 3970.54 3687.6 3996.74 3687.6 4030.17C3687.6 4036.24 3687.97 4043.08 3688.73 4050.67C3695.57 4131.19 3729.37 4171.44 3790.14 4171.44Z" fill="black"/>
<path d="M803.624 3233H604.653V2866.47H648.112V3227.76H803.624V3233ZM1062.13 3233C1038.39 3233 1022.16 3228.46 1013.44 3219.39C1005.41 3211.71 1001.39 3205.07 1001.39 3199.49V3188.49C984.288 3219.56 956.886 3235.09 919.186 3235.09C875.203 3235.09 850.244 3215.2 844.31 3175.4C843.612 3171.21 843.263 3167.03 843.263 3162.84C843.263 3158.3 843.961 3153.41 845.357 3148.18C846.753 3142.94 850.768 3137.18 857.4 3130.9C870.665 3118.33 899.812 3110.65 944.843 3107.86C956.013 3106.81 966.311 3106.29 975.736 3106.29C985.161 3106.29 993.713 3106.64 1001.39 3107.33V3020.41C1000.69 3020.07 1000.69 3018.5 1001.39 3015.7C1002.09 3012.56 1001.39 3008.72 999.298 3004.18C997.553 2999.3 995.109 2994.58 991.967 2990.05C988.826 2985.51 983.241 2981.67 975.212 2978.53C967.183 2975.04 956.711 2973.29 943.795 2973.29C930.88 2973.29 915.695 2975.73 898.241 2980.62C881.137 2985.16 868.57 2989.7 860.542 2994.23L858.447 2990.57C889.515 2976.26 921.106 2969.1 953.22 2969.1C989.175 2969.1 1012.91 2975.56 1024.43 2988.47C1033.51 2998.6 1038.04 3009.24 1038.04 3020.41V3195.82C1038.04 3205.95 1039.96 3213.8 1043.8 3219.39C1047.99 3224.62 1052.18 3227.41 1056.37 3227.76L1062.13 3228.81H1078.36V3233H1062.13ZM927.564 3230.91C946.064 3230.91 962.645 3224.62 977.306 3212.06C992.316 3199.14 1000.35 3186.75 1001.39 3174.88V3111.52C991.967 3110.82 982.368 3110.48 972.594 3110.48C963.169 3110.48 953.744 3111 944.319 3112.05C917.79 3115.19 900.51 3121.12 892.482 3129.85C884.453 3138.58 880.439 3150.62 880.439 3165.98C880.439 3168.77 880.613 3171.91 880.962 3175.4C884.104 3212.4 899.638 3230.91 927.564 3230.91Z" fill="black"/>
<mask id="path-20-inside-1_531_1424" fill="white">
<path d="M0 4360H4505V5019H0V4360Z"/>
</mask>
<path d="M0 4360V4366.35H4505V4360V4353.65H0V4360Z" fill="#FF335F" mask="url(#path-20-inside-1_531_1424)"/>
<path d="M229.273 4790.89C227.987 4790.99 225.464 4791.68 221.703 4792.97C217.943 4794.26 213.786 4794.9 209.234 4794.9C198.844 4794.9 190.581 4793.17 184.445 4789.7C178.409 4786.24 173.708 4781.69 170.344 4776.05C167.078 4770.31 164.456 4764.02 162.477 4757.2C160.596 4750.37 158.667 4743.59 156.688 4736.86C154.708 4730.03 151.987 4723.8 148.523 4718.16C145.06 4712.42 140.211 4707.82 133.977 4704.35C127.742 4700.89 119.281 4699.16 108.594 4699.16C105.427 4699.16 102.409 4699.26 99.5391 4699.45C96.7682 4699.65 95.2344 4699.75 94.9375 4699.75V4769.07C94.9375 4770.55 95.4323 4771.99 96.4219 4773.38C97.5104 4774.76 99.1432 4775.55 101.32 4775.75L117.352 4776.94V4790H41.7969V4776.94L57.5312 4775.75C59.7083 4775.55 61.3411 4774.76 62.4297 4773.38C63.6172 4771.99 64.2109 4770.55 64.2109 4769.07V4606.98C64.2109 4605.49 63.6172 4604.06 62.4297 4602.67C61.3411 4601.19 59.7083 4600.4 57.5312 4600.3L41.7969 4599.11V4586.05H121.062C144.12 4586.05 162.279 4590.05 175.539 4598.07C188.898 4605.99 195.578 4619.99 195.578 4640.08C195.578 4650.67 193.203 4659.38 188.453 4666.2C183.703 4672.93 177.518 4678.23 169.898 4682.09C162.378 4685.95 154.312 4688.86 145.703 4690.84C155.104 4693.12 162.427 4696.39 167.672 4700.64C173.016 4704.8 176.974 4709.55 179.547 4714.89C182.12 4720.23 184.049 4725.78 185.336 4731.52C186.622 4737.26 187.909 4742.85 189.195 4748.29C190.482 4753.73 192.411 4758.63 194.984 4762.98C197.656 4767.34 201.664 4770.8 207.008 4773.38C212.352 4775.95 219.773 4777.23 229.273 4777.23V4790.89ZM162.477 4641.41C162.477 4628.45 158.32 4618.46 150.008 4611.43C141.794 4604.4 128.089 4600.89 108.891 4600.89H94.9375V4684.16C95.4323 4684.16 97.4609 4684.21 101.023 4684.31C104.685 4684.41 107.703 4684.46 110.078 4684.46C127 4684.46 139.964 4681.34 148.969 4675.11C157.974 4668.88 162.477 4657.64 162.477 4641.41ZM416.702 4774.86C408.192 4780.1 398.989 4784.56 389.093 4788.22C379.296 4791.88 369.252 4793.71 358.96 4793.71C346.689 4793.71 335.161 4790.99 324.374 4785.55C313.687 4780.01 305.028 4771.64 298.398 4760.46C291.768 4749.28 288.452 4735.23 288.452 4718.3C288.452 4702.47 291.52 4688.67 297.656 4676.89C303.791 4665.11 312.252 4656.01 323.038 4649.58C333.825 4643.05 346.096 4639.78 359.851 4639.78C378.752 4639.78 392.952 4645.67 402.452 4657.45C411.952 4669.12 416.702 4684.02 416.702 4702.12C416.702 4703.11 416.702 4704.45 416.702 4706.13C416.702 4707.72 416.604 4709.2 416.406 4710.59H317.843C317.843 4718.3 318.635 4726.02 320.218 4733.74C321.9 4741.36 324.671 4748.29 328.531 4754.52C332.39 4760.76 337.585 4765.76 344.117 4769.52C350.648 4773.28 358.812 4775.16 368.609 4775.16C377.317 4775.16 385.778 4773.18 393.992 4769.22C402.304 4765.16 409.874 4760.86 416.702 4756.3V4774.86ZM386.273 4696.93V4690.25C386.273 4680.26 383.848 4671.84 378.999 4665.02C374.249 4658.19 366.827 4654.77 356.734 4654.77C346.739 4654.77 338.229 4658.53 331.202 4666.05C324.176 4673.58 320.268 4683.87 319.476 4696.93H386.273ZM639.311 4790H591.514V4773.82C584.587 4779.16 577.215 4783.82 569.397 4787.77C561.579 4791.73 553.267 4793.71 544.46 4793.71C534.267 4793.71 525.46 4791.58 518.038 4787.33C510.715 4782.97 504.678 4777.23 499.928 4770.11C495.277 4762.98 491.814 4755.12 489.538 4746.51C487.262 4737.9 486.124 4729.29 486.124 4720.68C486.124 4706.92 488.944 4693.91 494.585 4681.64C500.225 4669.27 508.785 4659.23 520.264 4651.51C531.744 4643.69 546.191 4639.78 563.608 4639.78C568.457 4639.78 573.702 4640.28 579.342 4641.27C585.082 4642.16 589.139 4642.9 591.514 4643.49V4587.83H568.507V4577.73L607.694 4566.01H619.866V4770.55C619.866 4774.71 621.994 4776.94 626.249 4777.23L639.311 4778.12V4790ZM591.514 4762.39V4658.93C588.941 4658.04 585.082 4657.1 579.936 4656.11C574.889 4655.02 570.139 4654.48 565.686 4654.48C550.645 4654.48 538.621 4660.07 529.616 4671.25C520.611 4682.33 516.108 4697.08 516.108 4715.48C516.108 4732.01 519.967 4745.72 527.686 4756.6C535.405 4767.49 546.241 4772.93 560.194 4772.93C566.329 4772.93 572.069 4771.79 577.413 4769.52C582.856 4767.14 587.556 4764.77 591.514 4762.39ZM834.607 4774.86C826.097 4780.1 816.894 4784.56 806.998 4788.22C797.201 4791.88 787.157 4793.71 776.865 4793.71C764.594 4793.71 753.066 4790.99 742.279 4785.55C731.592 4780.01 722.933 4771.64 716.303 4760.46C709.673 4749.28 706.357 4735.23 706.357 4718.3C706.357 4702.47 709.425 4688.67 715.561 4676.89C721.696 4665.11 730.157 4656.01 740.943 4649.58C751.73 4643.05 764.001 4639.78 777.756 4639.78C796.657 4639.78 810.857 4645.67 820.357 4657.45C829.857 4669.12 834.607 4684.02 834.607 4702.12C834.607 4703.11 834.607 4704.45 834.607 4706.13C834.607 4707.72 834.509 4709.2 834.311 4710.59H735.748C735.748 4718.3 736.54 4726.02 738.123 4733.74C739.805 4741.36 742.576 4748.29 746.436 4754.52C750.295 4760.76 755.49 4765.76 762.022 4769.52C768.553 4773.28 776.717 4775.16 786.514 4775.16C795.222 4775.16 803.683 4773.18 811.897 4769.22C820.209 4765.16 827.779 4760.86 834.607 4756.3V4774.86ZM804.178 4696.93V4690.25C804.178 4680.26 801.753 4671.84 796.904 4665.02C792.154 4658.19 784.732 4654.77 774.639 4654.77C764.644 4654.77 756.134 4658.53 749.107 4666.05C742.081 4673.58 738.173 4683.87 737.381 4696.93H804.178ZM1004.22 4745.91C1004.22 4760.86 999.078 4772.58 988.787 4781.09C978.495 4789.51 964.294 4793.71 946.185 4793.71C936.883 4793.71 928.274 4792.72 920.357 4790.74C912.539 4788.86 907.096 4787.28 904.029 4785.99V4745.62H919.466L923.177 4771.45C926.245 4773.42 930.005 4775.35 934.458 4777.23C939.011 4779.02 944.255 4779.91 950.193 4779.91C958.901 4779.91 965.63 4777.48 970.38 4772.63C975.13 4767.78 977.505 4762.34 977.505 4756.3C977.505 4748.29 974.636 4742.25 968.896 4738.2C963.156 4734.04 954.992 4729.44 944.404 4724.39L940.396 4722.46C929.313 4717.22 920.802 4711.77 914.865 4706.13C909.026 4700.39 906.107 4692.97 906.107 4683.87C906.107 4670.31 910.857 4659.57 920.357 4651.66C929.857 4643.74 943.365 4639.78 960.88 4639.78C969.787 4639.78 977.703 4640.62 984.63 4642.3C991.656 4643.89 996.703 4645.37 999.771 4646.76V4682.68H983.888L981.513 4661.45C979.336 4659.77 976.12 4658.19 971.865 4656.7C967.609 4655.22 963.107 4654.48 958.357 4654.48C950.044 4654.48 943.859 4656.41 939.802 4660.27C935.745 4664.03 933.716 4668.88 933.716 4674.81C933.716 4681.64 936.141 4687.08 940.99 4691.14C945.938 4695.1 954.844 4700 967.708 4705.84C978.297 4710.68 987.005 4716.13 993.833 4722.16C1000.76 4728.1 1004.22 4736.02 1004.22 4745.91ZM1129.61 4593.32C1129.61 4598.47 1127.82 4602.92 1124.26 4606.68C1120.7 4610.34 1116.35 4612.17 1111.2 4612.17C1106.05 4612.17 1101.6 4610.34 1097.84 4606.68C1094.18 4602.92 1092.35 4598.47 1092.35 4593.32C1092.35 4588.08 1094.18 4583.67 1097.84 4580.11C1101.6 4576.55 1106.05 4574.77 1111.2 4574.77C1116.35 4574.77 1120.7 4576.55 1124.26 4580.11C1127.82 4583.67 1129.61 4588.08 1129.61 4593.32ZM1145.19 4790H1073.79V4778.12L1088.64 4777.23C1092.89 4776.94 1095.02 4774.71 1095.02 4770.55V4662.05H1074.09V4651.36L1111.2 4639.78H1123.22V4770.55C1123.22 4772.43 1123.82 4773.97 1125 4775.16C1126.29 4776.34 1127.82 4777.04 1129.61 4777.23L1145.19 4778.12V4790ZM1358.75 4663.83H1328.46C1330.74 4667.49 1332.67 4671.5 1334.25 4675.85C1335.84 4680.21 1336.63 4685.3 1336.63 4691.14C1336.63 4701.23 1333.86 4709.89 1328.32 4717.12C1322.77 4724.24 1315.45 4729.73 1306.35 4733.59C1297.34 4737.45 1287.55 4739.38 1276.96 4739.38C1275.97 4739.38 1274.98 4739.38 1273.99 4739.38C1273 4739.38 1272.01 4739.33 1271.02 4739.23C1269.73 4741.31 1268.84 4743.54 1268.35 4745.91C1267.95 4748.29 1267.75 4750.52 1267.75 4752.59C1267.75 4754.47 1267.85 4756.06 1268.05 4757.34C1268.25 4758.63 1268.4 4759.37 1268.5 4759.57L1272.8 4760.02C1279.93 4760.71 1287.89 4761.7 1296.7 4762.98C1305.61 4764.27 1314.17 4766.35 1322.38 4769.22C1330.69 4772.09 1337.52 4776.15 1342.86 4781.39C1348.21 4786.64 1350.88 4793.56 1350.88 4802.17C1350.88 4811.77 1347.37 4820.92 1340.34 4829.63C1333.31 4838.44 1323.81 4845.61 1311.84 4851.16C1299.96 4856.8 1286.66 4859.62 1271.91 4859.62C1253.8 4859.62 1239.75 4855.46 1229.75 4847.15C1219.76 4838.93 1214.76 4828.69 1214.76 4816.42C1214.76 4807.61 1217.38 4799.75 1222.63 4792.82C1227.87 4785.99 1235.99 4781.59 1246.97 4779.61C1245.88 4776.44 1245.09 4774.17 1244.6 4772.78C1244.1 4771.4 1243.86 4769.02 1243.86 4765.66C1243.86 4761.7 1245.04 4757.34 1247.42 4752.59C1249.89 4747.74 1253.8 4742.6 1259.14 4737.16C1249.05 4734.88 1240.24 4729.78 1232.72 4721.87C1225.2 4713.85 1221.44 4703.71 1221.44 4691.44C1221.44 4675.51 1227.03 4662.94 1238.21 4653.73C1249.5 4644.43 1264.24 4639.78 1282.45 4639.78C1289.67 4639.78 1296.35 4640.87 1302.49 4643.05C1308.72 4645.12 1313.82 4647.1 1317.78 4648.98H1358.75V4663.83ZM1307.68 4689.36C1307.68 4682.93 1306.6 4676.89 1304.42 4671.25C1302.24 4665.61 1299.07 4661.06 1294.92 4657.59C1290.76 4654.03 1285.62 4652.25 1279.48 4652.25C1270.97 4652.25 1263.99 4655.57 1258.55 4662.2C1253.21 4668.73 1250.54 4677.88 1250.54 4689.66C1250.54 4699.85 1252.96 4708.61 1257.81 4715.93C1262.66 4723.15 1269.88 4726.77 1279.48 4726.77C1288.58 4726.77 1295.56 4723.1 1300.41 4715.78C1305.26 4708.46 1307.68 4699.65 1307.68 4689.36ZM1324.75 4810.34C1324.75 4804 1322.53 4799.1 1318.07 4795.64C1313.72 4792.18 1308.28 4789.6 1301.75 4787.92C1295.21 4786.24 1288.63 4785.05 1282 4784.36C1275.37 4783.57 1269.78 4782.73 1265.23 4781.84C1256.42 4785 1250.34 4789.31 1246.97 4794.75C1243.71 4800.19 1242.07 4805.39 1242.07 4810.34C1242.07 4815.18 1243.46 4820.33 1246.23 4825.77C1249.1 4831.32 1253.45 4836.02 1259.29 4839.88C1265.23 4843.73 1272.75 4845.66 1281.86 4845.66C1291.55 4845.66 1299.57 4843.73 1305.9 4839.88C1312.24 4836.02 1316.94 4831.32 1320 4825.77C1323.17 4820.33 1324.75 4815.18 1324.75 4810.34ZM1578.98 4790H1511.89V4778.12L1524.65 4777.23C1526.43 4777.04 1527.92 4776.34 1529.1 4775.16C1530.39 4773.97 1531.03 4772.43 1531.03 4770.55V4691.44C1531.03 4681.84 1528.81 4674.57 1524.35 4669.62C1519.9 4664.57 1512.38 4662.05 1501.79 4662.05C1496.05 4662.05 1490.31 4662.89 1484.57 4664.57C1478.93 4666.15 1473.54 4668.23 1468.39 4670.8V4770.55C1468.39 4774.71 1470.52 4776.94 1474.78 4777.23L1487.54 4778.12V4790H1418.82V4778.12L1433.66 4777.23C1437.91 4776.94 1440.04 4774.71 1440.04 4770.55V4665.02H1418.82V4655.07L1455.93 4643.49H1468.39V4658.63C1476.9 4653.78 1485.61 4649.43 1494.52 4645.57C1503.52 4641.71 1511.54 4639.78 1518.57 4639.78C1531.83 4639.78 1541.92 4643.94 1548.85 4652.25C1555.77 4660.46 1559.24 4671.94 1559.24 4686.69V4770.55C1559.24 4772.43 1559.83 4773.97 1561.02 4775.16C1562.31 4776.34 1563.84 4777.04 1565.62 4777.23L1578.98 4778.12V4790ZM1700.06 4593.32C1700.06 4598.47 1698.28 4602.92 1694.71 4606.68C1691.15 4610.34 1686.8 4612.17 1681.65 4612.17C1676.51 4612.17 1672.05 4610.34 1668.29 4606.68C1664.63 4602.92 1662.8 4598.47 1662.8 4593.32C1662.8 4588.08 1664.63 4583.67 1668.29 4580.11C1672.05 4576.55 1676.51 4574.77 1681.65 4574.77C1686.8 4574.77 1691.15 4576.55 1694.71 4580.11C1698.28 4583.67 1700.06 4588.08 1700.06 4593.32ZM1715.64 4790H1644.24V4778.12L1659.09 4777.23C1663.34 4776.94 1665.47 4774.71 1665.47 4770.55V4662.05H1644.54V4651.36L1681.65 4639.78H1693.67V4770.55C1693.67 4772.43 1694.27 4773.97 1695.46 4775.16C1696.74 4776.34 1698.28 4777.04 1700.06 4777.23L1715.64 4778.12V4790ZM1941.07 4790H1873.98V4778.12L1886.74 4777.23C1888.53 4777.04 1890.01 4776.34 1891.2 4775.16C1892.48 4773.97 1893.13 4772.43 1893.13 4770.55V4691.44C1893.13 4681.84 1890.9 4674.57 1886.45 4669.62C1881.99 4664.57 1874.47 4662.05 1863.89 4662.05C1858.15 4662.05 1852.41 4662.89 1846.67 4664.57C1841.03 4666.15 1835.63 4668.23 1830.49 4670.8V4770.55C1830.49 4774.71 1832.61 4776.94 1836.87 4777.23L1849.64 4778.12V4790H1780.91V4778.12L1795.75 4777.23C1800.01 4776.94 1802.14 4774.71 1802.14 4770.55V4665.02H1780.91V4655.07L1818.02 4643.49H1830.49V4658.63C1839 4653.78 1847.71 4649.43 1856.61 4645.57C1865.62 4641.71 1873.63 4639.78 1880.66 4639.78C1893.92 4639.78 1904.01 4643.94 1910.94 4652.25C1917.87 4660.46 1921.33 4671.94 1921.33 4686.69V4770.55C1921.33 4772.43 1921.92 4773.97 1923.11 4775.16C1924.4 4776.34 1925.93 4777.04 1927.71 4777.23L1941.07 4778.12V4790ZM2150.32 4663.83H2120.04C2122.32 4667.49 2124.25 4671.5 2125.83 4675.85C2127.41 4680.21 2128.2 4685.3 2128.2 4691.14C2128.2 4701.23 2125.43 4709.89 2119.89 4717.12C2114.35 4724.24 2107.03 4729.73 2097.92 4733.59C2088.92 4737.45 2079.12 4739.38 2068.53 4739.38C2067.54 4739.38 2066.55 4739.38 2065.56 4739.38C2064.57 4739.38 2063.58 4739.33 2062.6 4739.23C2061.31 4741.31 2060.42 4743.54 2059.92 4745.91C2059.53 4748.29 2059.33 4750.52 2059.33 4752.59C2059.33 4754.47 2059.43 4756.06 2059.63 4757.34C2059.82 4758.63 2059.97 4759.37 2060.07 4759.57L2064.38 4760.02C2071.5 4760.71 2079.47 4761.7 2088.28 4762.98C2097.18 4764.27 2105.74 4766.35 2113.95 4769.22C2122.27 4772.09 2129.1 4776.15 2134.44 4781.39C2139.78 4786.64 2142.45 4793.56 2142.45 4802.17C2142.45 4811.77 2138.94 4820.92 2131.92 4829.63C2124.89 4838.44 2115.39 4845.61 2103.42 4851.16C2091.54 4856.8 2078.23 4859.62 2063.49 4859.62C2045.38 4859.62 2031.32 4855.46 2021.33 4847.15C2011.33 4838.93 2006.34 4828.69 2006.34 4816.42C2006.34 4807.61 2008.96 4799.75 2014.2 4792.82C2019.45 4785.99 2027.56 4781.59 2038.55 4779.61C2037.46 4776.44 2036.67 4774.17 2036.17 4772.78C2035.68 4771.4 2035.43 4769.02 2035.43 4765.66C2035.43 4761.7 2036.62 4757.34 2038.99 4752.59C2041.47 4747.74 2045.38 4742.6 2050.72 4737.16C2040.63 4734.88 2031.82 4729.78 2024.3 4721.87C2016.78 4713.85 2013.02 4703.71 2013.02 4691.44C2013.02 4675.51 2018.61 4662.94 2029.79 4653.73C2041.07 4644.43 2055.82 4639.78 2074.03 4639.78C2081.25 4639.78 2087.93 4640.87 2094.06 4643.05C2100.3 4645.12 2105.39 4647.1 2109.35 4648.98H2150.32V4663.83ZM2099.26 4689.36C2099.26 4682.93 2098.17 4676.89 2095.99 4671.25C2093.82 4665.61 2090.65 4661.06 2086.49 4657.59C2082.34 4654.03 2077.19 4652.25 2071.06 4652.25C2062.55 4652.25 2055.57 4655.57 2050.13 4662.2C2044.78 4668.73 2042.11 4677.88 2042.11 4689.66C2042.11 4699.85 2044.54 4708.61 2049.38 4715.93C2054.23 4723.15 2061.46 4726.77 2071.06 4726.77C2080.16 4726.77 2087.14 4723.1 2091.99 4715.78C2096.83 4708.46 2099.26 4699.65 2099.26 4689.36ZM2116.33 4810.34C2116.33 4804 2114.1 4799.1 2109.65 4795.64C2105.3 4792.18 2099.85 4789.6 2093.32 4787.92C2086.79 4786.24 2080.21 4785.05 2073.58 4784.36C2066.95 4783.57 2061.36 4782.73 2056.81 4781.84C2048 4785 2041.91 4789.31 2038.55 4794.75C2035.28 4800.19 2033.65 4805.39 2033.65 4810.34C2033.65 4815.18 2035.04 4820.33 2037.81 4825.77C2040.68 4831.32 2045.03 4836.02 2050.87 4839.88C2056.81 4843.73 2064.33 4845.66 2073.43 4845.66C2083.13 4845.66 2091.14 4843.73 2097.48 4839.88C2103.81 4836.02 2108.51 4831.32 2111.58 4825.77C2114.75 4820.33 2116.33 4815.18 2116.33 4810.34ZM2557.24 4790H2399.6V4776.94L2415.34 4775.75C2417.51 4775.55 2419.15 4774.76 2420.23 4773.38C2421.42 4771.99 2422.02 4770.55 2422.02 4769.07V4606.98C2422.02 4605.49 2421.42 4604.06 2420.23 4602.67C2419.15 4601.19 2417.51 4600.4 2415.34 4600.3L2399.6 4599.11V4586.05H2547.3V4631.32H2529.04L2524.44 4606.38C2524.34 4604.9 2523.75 4603.56 2522.66 4602.38C2521.57 4601.19 2520.33 4600.59 2518.95 4600.59H2453.04V4676.3H2498.61C2500 4676.3 2501.23 4675.7 2502.32 4674.52C2503.51 4673.33 2504.1 4672.19 2504.1 4671.1L2507.22 4650.17H2522.66V4718.01H2507.22L2504.1 4696.93C2504.1 4695.84 2503.51 4694.65 2502.32 4693.37C2501.13 4692.08 2499.9 4691.44 2498.61 4691.44H2453.04V4775.16H2529.93C2531.22 4775.16 2532.4 4774.46 2533.49 4773.08C2534.68 4771.59 2535.32 4770.36 2535.42 4769.37L2540.91 4739.23H2557.24V4790ZM2767.68 4790H2702.37V4778.12L2712.61 4776.94C2714.79 4776.74 2715.87 4775.5 2715.87 4773.23C2715.87 4772.63 2715.73 4772.04 2715.43 4771.45L2689.3 4732.55L2659.47 4771.45C2658.97 4771.94 2658.73 4772.73 2658.73 4773.82C2658.73 4775.8 2659.57 4776.84 2661.25 4776.94L2676.54 4778.12V4790H2618.65V4778.12L2636.02 4775.75L2679.51 4719.2L2638.24 4658.04L2620.28 4655.37V4643.49H2687.08V4655.37L2676.54 4656.85C2674.16 4657.15 2672.98 4658.43 2672.98 4660.71C2672.98 4661.3 2673.12 4661.85 2673.42 4662.34L2697.47 4696.34L2723.89 4662.34C2724.39 4661.65 2724.63 4660.96 2724.63 4660.27C2724.63 4658.19 2723.69 4657.05 2721.81 4656.85L2708.75 4655.37V4643.49H2763.37V4655.37L2747.05 4658.04L2706.23 4709.99L2751.2 4775.75L2767.68 4778.12V4790ZM2978.86 4714.59C2978.86 4730.53 2975.79 4744.43 2969.66 4756.3C2963.52 4768.18 2954.71 4777.38 2943.23 4783.91C2931.75 4790.45 2918 4793.71 2901.97 4793.71C2898.31 4793.71 2894.35 4793.46 2890.09 4792.97C2885.94 4792.47 2882.37 4791.98 2879.41 4791.48C2876.44 4791.09 2874.95 4790.89 2874.95 4790.89V4836.16C2874.95 4838.04 2875.6 4839.53 2876.88 4840.62C2878.17 4841.71 2879.75 4842.35 2881.63 4842.55L2899.59 4844.48V4856.2H2825.67V4844.48L2840.22 4842.55C2844.47 4842.25 2846.6 4840.12 2846.6 4836.16V4665.02H2825.67V4655.07L2863.08 4643.49H2874.95V4658.63C2874.95 4658.63 2876.19 4657.69 2878.66 4655.81C2881.24 4653.93 2884.65 4651.76 2888.91 4649.28C2893.26 4646.71 2898.16 4644.48 2903.6 4642.6C2909.14 4640.72 2914.88 4639.78 2920.82 4639.78C2931.31 4639.78 2940.91 4642.9 2949.62 4649.13C2958.42 4655.27 2965.5 4663.93 2970.84 4675.11C2976.19 4686.29 2978.86 4699.45 2978.86 4714.59ZM2948.43 4718.9C2948.43 4708.41 2946.8 4698.81 2943.53 4690.1C2940.36 4681.39 2935.61 4674.42 2929.28 4669.17C2923.05 4663.83 2915.28 4661.16 2905.98 4661.16C2900.93 4661.16 2896.03 4661.9 2891.28 4663.38C2886.53 4664.87 2882.62 4666.4 2879.55 4667.98C2876.49 4669.47 2874.95 4670.21 2874.95 4670.21V4774.86C2874.95 4774.86 2877.48 4775.65 2882.52 4777.23C2887.67 4778.82 2893.36 4779.61 2899.59 4779.61C2910.78 4779.61 2919.93 4776.74 2927.05 4771C2934.28 4765.26 2939.62 4757.79 2943.08 4748.59C2946.65 4739.28 2948.43 4729.39 2948.43 4718.9ZM3176.68 4774.86C3168.17 4780.1 3158.96 4784.56 3149.07 4788.22C3139.27 4791.88 3129.23 4793.71 3118.94 4793.71C3106.67 4793.71 3095.14 4790.99 3084.35 4785.55C3073.66 4780.01 3065 4771.64 3058.37 4760.46C3051.74 4749.28 3048.43 4735.23 3048.43 4718.3C3048.43 4702.47 3051.5 4688.67 3057.63 4676.89C3063.77 4665.11 3072.23 4656.01 3083.01 4649.58C3093.8 4643.05 3106.07 4639.78 3119.83 4639.78C3138.73 4639.78 3152.93 4645.67 3162.43 4657.45C3171.93 4669.12 3176.68 4684.02 3176.68 4702.12C3176.68 4703.11 3176.68 4704.45 3176.68 4706.13C3176.68 4707.72 3176.58 4709.2 3176.38 4710.59H3077.82C3077.82 4718.3 3078.61 4726.02 3080.19 4733.74C3081.88 4741.36 3084.65 4748.29 3088.51 4754.52C3092.37 4760.76 3097.56 4765.76 3104.09 4769.52C3110.62 4773.28 3118.79 4775.16 3128.58 4775.16C3137.29 4775.16 3145.75 4773.18 3153.97 4769.22C3162.28 4765.16 3169.85 4760.86 3176.68 4756.3V4774.86ZM3146.25 4696.93V4690.25C3146.25 4680.26 3143.82 4671.84 3138.98 4665.02C3134.23 4658.19 3126.8 4654.77 3116.71 4654.77C3106.71 4654.77 3098.2 4658.53 3091.18 4666.05C3084.15 4673.58 3080.24 4683.87 3079.45 4696.93H3146.25ZM3351.49 4674.52H3339.61C3337.73 4672.24 3335.46 4670.31 3332.79 4668.73C3330.21 4667.04 3327.05 4666.2 3323.29 4666.2C3318.44 4666.2 3313.44 4667.89 3308.29 4671.25C3303.25 4674.61 3298.1 4679.22 3292.86 4685.05V4770.55C3292.86 4774.81 3294.98 4777.04 3299.24 4777.23L3319.28 4778.12V4790H3243.28V4778.42L3258.27 4777.23C3260.05 4777.04 3261.54 4776.34 3262.72 4775.16C3264.01 4773.97 3264.65 4772.43 3264.65 4770.55V4665.02H3242.69V4655.07L3280.39 4643.49H3292.86V4670.51C3295.83 4667.24 3299.54 4663.18 3303.99 4658.34C3308.44 4653.49 3313.19 4649.18 3318.24 4645.42C3323.29 4641.66 3328.19 4639.78 3332.94 4639.78C3336.1 4639.78 3339.52 4640.28 3343.18 4641.27C3346.84 4642.26 3349.61 4643.29 3351.49 4644.38V4674.52ZM3469.6 4593.32C3469.6 4598.47 3467.82 4602.92 3464.25 4606.68C3460.69 4610.34 3456.34 4612.17 3451.19 4612.17C3446.05 4612.17 3441.59 4610.34 3437.83 4606.68C3434.17 4602.92 3432.34 4598.47 3432.34 4593.32C3432.34 4588.08 3434.17 4583.67 3437.83 4580.11C3441.59 4576.55 3446.05 4574.77 3451.19 4574.77C3456.34 4574.77 3460.69 4576.55 3464.25 4580.11C3467.82 4583.67 3469.6 4588.08 3469.6 4593.32ZM3485.18 4790H3413.79V4778.12L3428.63 4777.23C3432.89 4776.94 3435.01 4774.71 3435.01 4770.55V4662.05H3414.08V4651.36L3451.19 4639.78H3463.22V4770.55C3463.22 4772.43 3463.81 4773.97 3465 4775.16C3466.28 4776.34 3467.82 4777.04 3469.6 4777.23L3485.18 4778.12V4790ZM3683 4774.86C3674.49 4780.1 3665.29 4784.56 3655.4 4788.22C3645.6 4791.88 3635.55 4793.71 3625.26 4793.71C3612.99 4793.71 3601.46 4790.99 3590.68 4785.55C3579.99 4780.01 3571.33 4771.64 3564.7 4760.46C3558.07 4749.28 3554.75 4735.23 3554.75 4718.3C3554.75 4702.47 3557.82 4688.67 3563.96 4676.89C3570.09 4665.11 3578.55 4656.01 3589.34 4649.58C3600.13 4643.05 3612.4 4639.78 3626.15 4639.78C3645.05 4639.78 3659.25 4645.67 3668.75 4657.45C3678.25 4669.12 3683 4684.02 3683 4702.12C3683 4703.11 3683 4704.45 3683 4706.13C3683 4707.72 3682.91 4709.2 3682.71 4710.59H3584.15C3584.15 4718.3 3584.94 4726.02 3586.52 4733.74C3588.2 4741.36 3590.97 4748.29 3594.83 4754.52C3598.69 4760.76 3603.89 4765.76 3610.42 4769.52C3616.95 4773.28 3625.11 4775.16 3634.91 4775.16C3643.62 4775.16 3652.08 4773.18 3660.29 4769.22C3668.61 4765.16 3676.18 4760.86 3683 4756.3V4774.86ZM3652.57 4696.93V4690.25C3652.57 4680.26 3650.15 4671.84 3645.3 4665.02C3640.55 4658.19 3633.13 4654.77 3623.04 4654.77C3613.04 4654.77 3604.53 4658.53 3597.5 4666.05C3590.48 4673.58 3586.57 4683.87 3585.78 4696.93H3652.57ZM3908.28 4790H3841.19V4778.12L3853.96 4777.23C3855.74 4777.04 3857.22 4776.34 3858.41 4775.16C3859.7 4773.97 3860.34 4772.43 3860.34 4770.55V4691.44C3860.34 4681.84 3858.11 4674.57 3853.66 4669.62C3849.21 4664.57 3841.69 4662.05 3831.1 4662.05C3825.36 4662.05 3819.62 4662.89 3813.88 4664.57C3808.24 4666.15 3802.84 4668.23 3797.7 4670.8V4770.55C3797.7 4774.71 3799.83 4776.94 3804.08 4777.23L3816.85 4778.12V4790H3748.12V4778.12L3762.96 4777.23C3767.22 4776.94 3769.35 4774.71 3769.35 4770.55V4665.02H3748.12V4655.07L3785.23 4643.49H3797.7V4658.63C3806.21 4653.78 3814.92 4649.43 3823.82 4645.57C3832.83 4641.71 3840.84 4639.78 3847.87 4639.78C3861.13 4639.78 3871.23 4643.94 3878.15 4652.25C3885.08 4660.46 3888.54 4671.94 3888.54 4686.69V4770.55C3888.54 4772.43 3889.14 4773.97 3890.32 4775.16C3891.61 4776.34 3893.14 4777.04 3894.93 4777.23L3908.28 4778.12V4790ZM4094.53 4761.35V4778.72C4087.7 4782.38 4079.98 4785.79 4071.37 4788.96C4062.86 4792.13 4053.46 4793.71 4043.17 4793.71C4029.02 4793.71 4016.7 4790.4 4006.21 4783.77C3995.82 4777.14 3987.75 4768.13 3982.01 4756.75C3976.37 4745.27 3973.55 4732.26 3973.55 4717.71C3973.55 4700.69 3976.91 4686.39 3983.64 4674.81C3990.47 4663.23 3999.43 4654.53 4010.51 4648.69C4021.69 4642.75 4033.77 4639.78 4046.73 4639.78C4060.09 4639.78 4071.27 4642.4 4080.28 4647.65C4089.38 4652.79 4093.93 4660.32 4093.93 4670.21C4093.93 4676.15 4092.05 4680.65 4088.29 4683.72C4084.63 4686.69 4080.52 4688.17 4075.97 4688.17C4072.61 4688.17 4069.69 4687.63 4067.21 4686.54C4064.74 4685.35 4062.56 4684.16 4060.68 4682.98V4656.55C4056.03 4653.88 4051.78 4652.55 4047.92 4652.55C4038.91 4652.55 4031.14 4655.22 4024.61 4660.56C4018.18 4665.81 4013.23 4673.03 4009.77 4682.23C4006.31 4691.44 4004.57 4701.93 4004.57 4713.7C4004.57 4724.89 4006.45 4735.13 4010.21 4744.43C4013.97 4753.63 4019.57 4760.96 4026.99 4766.4C4034.51 4771.84 4043.81 4774.56 4054.89 4774.56C4061.92 4774.56 4068.65 4773.42 4075.08 4771.15C4081.51 4768.87 4088 4765.61 4094.53 4761.35ZM4292.05 4774.86C4283.54 4780.1 4274.34 4784.56 4264.44 4788.22C4254.64 4791.88 4244.6 4793.71 4234.31 4793.71C4222.04 4793.71 4210.51 4790.99 4199.72 4785.55C4189.03 4780.01 4180.37 4771.64 4173.74 4760.46C4167.11 4749.28 4163.8 4735.23 4163.8 4718.3C4163.8 4702.47 4166.87 4688.67 4173 4676.89C4179.14 4665.11 4187.6 4656.01 4198.39 4649.58C4209.17 4643.05 4221.44 4639.78 4235.2 4639.78C4254.1 4639.78 4268.3 4645.67 4277.8 4657.45C4287.3 4669.12 4292.05 4684.02 4292.05 4702.12C4292.05 4703.11 4292.05 4704.45 4292.05 4706.13C4292.05 4707.72 4291.95 4709.2 4291.75 4710.59H4193.19C4193.19 4718.3 4193.98 4726.02 4195.56 4733.74C4197.25 4741.36 4200.02 4748.29 4203.88 4754.52C4207.74 4760.76 4212.93 4765.76 4219.46 4769.52C4225.99 4773.28 4234.16 4775.16 4243.96 4775.16C4252.66 4775.16 4261.12 4773.18 4269.34 4769.22C4277.65 4765.16 4285.22 4760.86 4292.05 4756.3V4774.86ZM4261.62 4696.93V4690.25C4261.62 4680.26 4259.2 4671.84 4254.35 4665.02C4249.6 4658.19 4242.17 4654.77 4232.08 4654.77C4222.09 4654.77 4213.58 4658.53 4206.55 4666.05C4199.52 4673.58 4195.61 4683.87 4194.82 4696.93H4261.62ZM4461.67 4745.91C4461.67 4760.86 4456.52 4772.58 4446.23 4781.09C4435.94 4789.51 4421.74 4793.71 4403.63 4793.71C4394.32 4793.71 4385.72 4792.72 4377.8 4790.74C4369.98 4788.86 4364.54 4787.28 4361.47 4785.99V4745.62H4376.91L4380.62 4771.45C4383.69 4773.42 4387.45 4775.35 4391.9 4777.23C4396.45 4779.02 4401.7 4779.91 4407.63 4779.91C4416.34 4779.91 4423.07 4777.48 4427.82 4772.63C4432.57 4767.78 4434.95 4762.34 4434.95 4756.3C4434.95 4748.29 4432.08 4742.25 4426.34 4738.2C4420.6 4734.04 4412.43 4729.44 4401.85 4724.39L4397.84 4722.46C4386.75 4717.22 4378.24 4711.77 4372.31 4706.13C4366.47 4700.39 4363.55 4692.97 4363.55 4683.87C4363.55 4670.31 4368.3 4659.57 4377.8 4651.66C4387.3 4643.74 4400.81 4639.78 4418.32 4639.78C4427.23 4639.78 4435.15 4640.62 4442.07 4642.3C4449.1 4643.89 4454.15 4645.37 4457.21 4646.76V4682.68H4441.33L4438.96 4661.45C4436.78 4659.77 4433.56 4658.19 4429.31 4656.7C4425.05 4655.22 4420.55 4654.48 4415.8 4654.48C4407.49 4654.48 4401.3 4656.41 4397.24 4660.27C4393.19 4664.03 4391.16 4668.88 4391.16 4674.81C4391.16 4681.64 4393.58 4687.08 4398.43 4691.14C4403.38 4695.1 4412.29 4700 4425.15 4705.84C4435.74 4710.68 4444.45 4716.13 4451.28 4722.16C4458.2 4728.1 4461.67 4736.02 4461.67 4745.91Z" fill="#FF335F"/>
</svg>
